HIERARCHY
ROOT hip
{
  OFFSET 0 0 0
  CHANNELS 6 Xposition Yposition Zposition Zrotation Yrotation Xrotation
  JOINT abdomen
  {
    OFFSET 0 20.6881 -0.73152
    CHANNELS 3 Zrotation Xrotation Yrotation
    JOINT chest
    {
      OFFSET 0 11.7043 -0.48768
      CHANNELS 3 Zrotation Xrotation Yrotation
      JOINT neck
      {
        OFFSET 0 22.1894 -2.19456
        CHANNELS 3 Zrotation Xrotation Yrotation
        JOINT head
        {
          OFFSET -0.24384 7.07133 1.2192
          CHANNELS 3 Zrotation Xrotation Yrotation
          JOINT leftEye
          {
            OFFSET 4.14528 8.04674 8.04672
            CHANNELS 3 Zrotation Xrotation Yrotation
            End Site
            {
              OFFSET 1 0 0
            }
          }
          JOINT rightEye
          {
            OFFSET -3.6576 8.04674 8.04672
            CHANNELS 3 Zrotation Xrotation Yrotation
            End Site
            {
              OFFSET 1 0 0
            }
          }
        }
      }
      JOINT rCollar
      {
        OFFSET -2.68224 19.2634 -4.8768
        CHANNELS 3 Zrotation Xrotation Yrotation
        JOINT rShldr
        {
          OFFSET -8.77824 -1.95073 1.46304
          CHANNELS 3 Zrotation Xrotation Yrotation
          JOINT rForeArm
          {
            OFFSET -28.1742 -1.7115 0.48768
            CHANNELS 3 Zrotation Xrotation Yrotation
            JOINT rHand
            {
              OFFSET -22.5879 0.773209 7.07136
              CHANNELS 3 Zrotation Xrotation Yrotation
              JOINT rThumb1
              {
                OFFSET -1.2192 -0.487915 3.41376
                CHANNELS 3 Zrotation Xrotation Yrotation
                JOINT rThumb2
                {
                  OFFSET -3.37035 -0.52449 3.41376
                  CHANNELS 3 Zrotation Xrotation Yrotation
                  End Site
                  {
                    OFFSET -1.78271 -1.18214 1.43049
                  }
                }
              }
              JOINT rIndex1
              {
                OFFSET -7.75947 0.938293 5.60832
                CHANNELS 3 Zrotation Xrotation Yrotation
                JOINT rIndex2
                {
                  OFFSET -2.54057 -0.884171 1.56538
                  CHANNELS 3 Zrotation Xrotation Yrotation
                  End Site
                  {
                    OFFSET -1.62519 -0.234802 1.16502
                  }
                }
              }
              JOINT rMid1
              {
                OFFSET -8.24714 1.18213 3.41376
                CHANNELS 3 Zrotation Xrotation Yrotation
                JOINT rMid2
                {
                  OFFSET -3.10165 -0.590103 1.0647
                  CHANNELS 3 Zrotation Xrotation Yrotation
                  End Site
                  {
                    OFFSET -2.48547 -0.328903 0.83742
                  }
                }
              }
              JOINT rRing1
              {
                OFFSET -8.82822 0.546677 1.51678
                CHANNELS 3 Zrotation Xrotation Yrotation
                JOINT rRing2
                {
                  OFFSET -2.60934 -0.819778 -0.0198488
                  CHANNELS 3 Zrotation Xrotation Yrotation
                  End Site
                  {
                    OFFSET -2.33842 -0.294052 0.168128
                  }
                }
              }
              JOINT rPinky1
              {
                OFFSET -8.27202 -0.0477905 -0.4584
                CHANNELS 3 Zrotation Xrotation Yrotation
                JOINT rPinky2
                {
                  OFFSET -1.82734 -0.647385 -0.700984
                  CHANNELS 3 Zrotation Xrotation Yrotation
                  End Site
                  {
                    OFFSET -1.69225 -0.51767 -0.607171
                  }
                }
              }
            }
          }
        }
      }
      JOINT lCollar
      {
        OFFSET 2.68224 19.2634 -4.8768
        CHANNELS 3 Zrotation Xrotation Yrotation
        JOINT lShldr
        {
          OFFSET 8.77824 -1.95073 1.46304
          CHANNELS 3 Zrotation Xrotation Yrotation
          JOINT lForeArm
          {
            OFFSET 28.1742 -1.7115 0.48768
            CHANNELS 3 Zrotation Xrotation Yrotation
            JOINT lHand
            {
              OFFSET 22.5879 0.773209 7.07136
              CHANNELS 3 Zrotation Xrotation Yrotation
              JOINT lThumb1
              {
                OFFSET 1.2192 -0.487915 3.41376
                CHANNELS 3 Zrotation Xrotation Yrotation
                JOINT lThumb2
                {
                  OFFSET 3.37035 -0.52449 3.41376
                  CHANNELS 3 Zrotation Xrotation Yrotation
                  End Site
                  {
                    OFFSET 1.78271 -1.18214 1.43049
                  }
                }
              }
              JOINT lIndex1
              {
                OFFSET 7.75947 0.938293 5.60832
                CHANNELS 3 Zrotation Xrotation Yrotation
                JOINT lIndex2
                {
                  OFFSET 2.54057 -0.884171 1.56538
                  CHANNELS 3 Zrotation Xrotation Yrotation
                  End Site
                  {
                    OFFSET 1.62519 -0.234802 1.16502
                  }
                }
              }
              JOINT lMid1
              {
                OFFSET 8.24714 1.18213 3.41376
                CHANNELS 3 Zrotation Xrotation Yrotation
                JOINT lMid2
                {
                  OFFSET 3.10165 -0.590103 1.0647
                  CHANNELS 3 Zrotation Xrotation Yrotation
                  End Site
                  {
                    OFFSET 2.48547 -0.328903 0.83742
                  }
                }
              }
              JOINT lRing1
              {
                OFFSET 8.82822 0.546677 1.51678
                CHANNELS 3 Zrotation Xrotation Yrotation
                JOINT lRing2
                {
                  OFFSET 2.60934 -0.819778 -0.0198488
                  CHANNELS 3 Zrotation Xrotation Yrotation
                  End Site
                  {
                    OFFSET 2.33842 -0.294052 0.168128
                  }
                }
              }
              JOINT lPinky1
              {
                OFFSET 8.27202 -0.0477905 -0.4584
                CHANNELS 3 Zrotation Xrotation Yrotation
                JOINT lPinky2
                {
                  OFFSET 1.82734 -0.647385 -0.700984
                  CHANNELS 3 Zrotation Xrotation Yrotation
                  End Site
                  {
                    OFFSET 1.69225 -0.51767 -0.607171
                  }
                }
              }
            }
          }
        }
      }
    }
  }
  JOINT rButtock
  {
    OFFSET -8.77824 4.35084 1.2192
    CHANNELS 3 Zrotation Xrotation Yrotation
    JOINT rThigh
    {
      OFFSET 0 -1.70687 -2.19456
      CHANNELS 3 Zrotation Xrotation Yrotation
      JOINT rShin
      {
        OFFSET 0 -36.8199 0.73152
        CHANNELS 3 Zrotation Xrotation Yrotation
        JOINT rFoot
        {
          OFFSET 0.73152 -45.1104 -5.12064
          CHANNELS 3 Zrotation Xrotation Yrotation
          End Site
          {
            OFFSET -1.1221 -3.69964 12.103
          }
        }
      }
    }
  }
  JOINT lButtock
  {
    OFFSET 8.77824 4.35084 1.2192
    CHANNELS 3 Zrotation Xrotation Yrotation
    JOINT lThigh
    {
      OFFSET 0 -1.70687 -2.19456
      CHANNELS 3 Zrotation Xrotation Yrotation
      JOINT lShin
      {
        OFFSET 0 -36.8199 0.73152
        CHANNELS 3 Zrotation Xrotation Yrotation
        JOINT lFoot
        {
          OFFSET -0.73152 -45.1104 -5.12064
          CHANNELS 3 Zrotation Xrotation Yrotation
          End Site
          {
            OFFSET 1.1221 -3.69964 12.103
          }
        }
      }
    }
  }
}
MOTION
Frames:	7
Frame Time:	0.00833333
2.88287 82.761 64.2349 -1.1428 -3.659 -3.1259 -1.15304 10.9833 6.41595 -1.53964 -4.93132 1.34677 -1.38081 -0.641673 -3.48491 2.19485 -1.4514 -6.46077 -0.0 0.0 0.0 -0.0 0.0 0.0 -1.01026e-14 9.2584e-14 -1.15702e-13 78.8921 5.92256 7.06578 -12.2598 -5.63146 22.1155 -0.0205957 3.90303 0.549645 7.8263e-10 -1.2576e-09 -9.72154e-10 1.34847e-09 -2.17275e-09 -1.68616e-09 7.82634e-10 -1.2576e-09 -9.72162e-10 7.73091 5.47488 0.417314 7.8263e-10 -1.2576e-09 -9.72159e-10 2.90554 0.965183 0.102902 7.82636e-10 -1.2576e-09 -9.72154e-10 10.2786 0.731801 0.0259123 7.82629e-10 -1.2576e-09 -9.72146e-10 2.22167 -0.733487 -0.20892 -1.02145e-14 9.25834e-14 -1.15904e-13 -82.2756 22.5909 5.74468 10.7398 -4.6031 -19.1964 0.0189717 -3.83736 0.540157 2.65847e-10 1.31296e-09 4.51739e-10 4.60892e-10 2.27225e-09 7.80866e-10 2.65846e-10 1.31296e-09 4.51746e-10 -7.73091 5.47488 -0.417314 2.65849e-10 1.31296e-09 4.51738e-10 -2.90554 0.965183 -0.102902 2.65839e-10 1.31296e-09 4.51738e-10 -10.2786 0.731801 -0.0259123 2.65848e-10 1.31296e-09 4.51734e-10 -2.22167 -0.733487 0.20892 -2.03217e-16 0.0 -3.88251e-19 -0.155105 -12.2744 2.96862 -1.55287 64.4547 1.47539 0.277499 26.5913 -1.09837 2.03217e-16 0.0 3.88251e-19 -5.94628 -25.948 -1.96427 0.295554 36.7735 0.35313 -0.297997 -6.21525 -3.57237
3.03778 82.7794 65.2912 -0.7903 -3.6918 -3.3236 -1.71813 11.1304 6.24282 -1.33138 -4.92838 1.28322 -1.49619 -0.70492 -3.37776 2.3001 -1.67496 -6.2107 -0.0 0.0 0.0 -0.0 0.0 0.0 -2.03945e-14 4.51617e-14 -1.7612e-13 79.0067 5.36121 6.95649 -12.012 -5.45603 21.6346 -0.0268439 4.48825 0.632369 1.23305e-09 -2.55653e-09 -8.45318e-10 2.12651e-09 -4.41981e-09 -1.4705e-09 1.23306e-09 -2.55653e-09 -8.45323e-10 7.73091 5.47488 0.417314 1.23305e-09 -2.55653e-09 -8.45322e-10 2.90554 0.965183 0.102902 1.23306e-09 -2.55653e-09 -8.45319e-10 10.2786 0.731801 0.0259123 1.23305e-09 -2.55652e-09 -8.45311e-10 2.22167 -0.733487 -0.20892 -2.04342e-14 4.51609e-14 -1.76263e-13 -82.1364 22.6156 5.47605 10.7957 -4.63911 -19.3023 0.0210208 -4.09994 0.577221 7.35796e-10 1.56671e-09 2.85796e-11 1.27432e-09 2.71173e-09 5.05729e-11 7.35792e-10 1.56671e-09 2.85822e-11 -7.73091 5.47488 -0.417314 7.35797e-10 1.56671e-09 2.85793e-11 -2.90554 0.965183 -0.102902 7.35788e-10 1.5667e-09 2.85787e-11 -10.2786 0.731801 -0.0259123 7.35799e-10 1.5667e-09 2.8576e-11 -2.22167 -0.733487 0.20892 -2.03217e-16 0.0 -3.88251e-19 -0.830731 -13.7963 2.59025 -1.78321 66.6313 1.69657 0.575668 25.2004 -2.29759 2.03217e-16 0.0 3.88251e-19 -6.57512 -25.1481 -1.95946 0.291017 36.9089 0.326219 -0.264643 -6.85411 -3.21097
3.16384 82.7937 66.3499 -0.6009 -3.7325 -3.4219 -2.16613 11.2538 6.06133 -1.16043 -4.93984 1.22129 -1.56301 -0.708042 -3.27495 2.33932 -1.87208 -5.98547 -0.0 0.0 0.0 -0.0 0.0 0.0 -2.30625e-14 1.70959e-14 -1.96747e-13 79.1608 4.60412 6.83358 -11.7424 -5.26963 21.1125 -0.0344224 5.28828 0.745358 1.39186e-09 -3.07926e-09 -7.7971e-10 2.40046e-09 -5.32378e-09 -1.35829e-09 1.39187e-09 -3.07926e-09 -7.79713e-10 7.73091 5.47488 0.417314 1.39186e-09 -3.07926e-09 -7.79713e-10 2.90554 0.965183 0.102902 1.39187e-09 -3.07926e-09 -7.79711e-10 10.2786 0.731801 0.0259123 1.39186e-09 -3.07926e-09 -7.79703e-10 2.22167 -0.733487 -0.20892 -2.30571e-14 1.70951e-14 -1.96847e-13 -81.9708 22.717 5.21827 10.8429 -4.66954 -19.3919 0.0237096 -4.39136 0.618388 9.26868e-10 1.57717e-09 -1.58735e-10 1.60482e-09 2.72975e-09 -2.72617e-10 9.26862e-10 1.57717e-09 -1.58735e-10 -7.73091 5.47488 -0.417314 9.26869e-10 1.57716e-09 -1.58735e-10 -2.90554 0.965183 -0.102902 9.2686e-10 1.57716e-09 -1.58736e-10 -10.2786 0.731801 -0.0259123 9.26873e-10 1.57716e-09 -1.58738e-10 -2.22167 -0.733487 0.20892 -2.03217e-16 0.0 -3.88251e-19 -1.40479 -15.3001 2.21931 -2.02731 68.5971 1.93948 0.776613 23.6803 -3.39653 2.03217e-16 0.0 3.88251e-19 -7.08945 -24.3383 -1.92395 0.285235 37.0063 0.292682 -0.227275 -7.46281 -2.8982
3.2648 82.8663 67.413 -0.4788 -3.763 -3.5983 -2.4554 11.3499 5.88284 -1.0446 -4.97618 1.16513 -1.55972 -0.619197 -3.17505 2.28465 -2.04559 -5.78934 -0.0 0.0 0.0 -0.0 0.0 0.0 -1.28273e-14 1.70492e-14 -1.54925e-13 79.3746 3.51655 6.69671 -11.4214 -5.05369 20.4916 -0.0476267 6.48894 0.915316 1.09041e-09 -2.38663e-09 -8.11821e-10 1.87874e-09 -4.12469e-09 -1.41125e-09 1.09042e-09 -2.38663e-09 -8.11826e-10 7.73091 5.47488 0.417314 1.09041e-09 -2.38663e-09 -8.11825e-10 2.90554 0.965183 0.102902 1.09042e-09 -2.38663e-09 -8.11823e-10 10.2786 0.731801 0.0259123 1.09041e-09 -2.38662e-09 -8.11816e-10 2.22167 -0.733487 -0.20892 -1.2814e-14 1.70486e-14 -1.54995e-13 -81.783 22.9445 5.00559 10.8807 -4.6939 -19.4638 0.0283294 -4.8081 0.677327 6.77684e-10 1.18328e-09 2.12018e-11 1.17287e-09 2.04726e-09 3.81321e-11 6.77677e-10 1.18328e-09 2.1201e-11 -7.73091 5.47488 -0.417314 6.77685e-10 1.18327e-09 2.12008e-11 -2.90554 0.965183 -0.102902 6.77675e-10 1.18327e-09 2.12012e-11 -10.2786 0.731801 -0.0259123 6.77688e-10 1.18327e-09 2.11976e-11 -2.22167 -0.733487 0.20892 -2.03217e-16 0.0 -3.88251e-19 -1.84228 -16.7985 1.85869 -2.28419 70.3592 2.20634 0.873034 21.8736 -4.43982 2.03217e-16 0.0 3.88251e-19 -7.4482 -23.505 -1.83418 0.278002 37.062 0.250359 -0.188522 -8.05293 -2.63714
3.35059 82.9032 68.4224 -0.3771 -3.7833 -3.7088 -2.61556 11.4217 5.68342 -0.958297 -5.02646 1.10824 -1.51706 -0.461785 -3.07302 2.17573 -2.20812 -5.60252 -0.0 0.0 0.0 -0.0 0.0 0.0 5.36622e-15 3.25261e-14 -7.23763e-14 79.6231 2.19967 6.56176 -11.0619 -4.81667 19.8015 -0.0721778 7.98478 1.1286 4.79123e-10 -9.11917e-10 -9.00725e-10 8.21364e-10 -1.57227e-09 -1.55995e-09 4.79128e-10 -9.11917e-10 -9.00734e-10 7.73091 5.47488 0.417314 4.79123e-10 -9.11914e-10 -9.0073e-10 2.90554 0.965183 0.102902 4.79127e-10 -9.11914e-10 -9.00727e-10 10.2786 0.731801 0.0259123 4.79118e-10 -9.11912e-10 -9.0072e-10 2.22167 -0.733487 -0.20892 5.36541e-15 3.25259e-14 -7.24259e-14 -81.5715 23.2436 4.80798 10.9086 -4.71205 -19.5169 0.0342222 -5.27872 0.743991 1.34207e-10 5.05073e-10 4.20828e-10 2.31213e-10 8.72234e-10 7.28112e-10 1.34201e-10 5.05073e-10 4.20828e-10 -7.73091 5.47488 -0.417314 1.34209e-10 5.0507e-10 4.20825e-10 -2.90554 0.965183 -0.102902 1.34197e-10 5.05069e-10 4.20828e-10 -10.2786 0.731801 -0.0259123 1.3421e-10 5.05068e-10 4.20822e-10 -2.22167 -0.733487 0.20892 -2.03217e-16 0.0 -3.88251e-19 -2.17649 -18.2795 1.47658 -2.55966 71.9459 2.50056 0.84954 19.629 -5.47991 2.03217e-16 0.0 3.88251e-19 -7.68752 -22.6441 -1.71098 0.269092 37.0661 0.199051 -0.149093 -8.6164 -2.42191
3.44532 82.9177 69.417 -0.1672 -3.8107 -3.7835 -2.71881 11.4751 5.45555 -0.880793 -5.07531 1.04611 -1.4617 -0.289836 -2.9759 2.04366 -2.34365 -5.4302 -0.0 0.0 0.0 -0.0 0.0 0.0 2.33485e-14 5.34076e-14 1.62072e-14 79.8726 0.880038 6.42177 -10.7182 -4.59279 19.1499 -0.105939 9.43641 1.33774 -1.75366e-10 6.81697e-10 -9.95009e-10 -3.10611e-10 1.18578e-09 -1.71759e-09 -1.75358e-10 6.81696e-10 -9.95022e-10 7.73091 5.47488 0.417314 -1.75366e-10 6.81701e-10 -9.95015e-10 2.90554 0.965183 0.102902 -1.75362e-10 6.817e-10 -9.95012e-10 10.2786 0.731801 0.0259123 -1.75373e-10 6.81702e-10 -9.95005e-10 2.22167 -0.733487 -0.20892 2.33228e-14 5.34076e-14 1.6166e-14 -81.324 23.5443 4.56959 10.9289 -4.72527 -19.5554 0.0392928 -5.63972 0.795215 -4.49932e-10 -1.85078e-10 8.55151e-10 -7.8075e-10 -3.23441e-10 1.47797e-09 -4.49937e-10 -1.85078e-10 8.55151e-10 -7.73091 5.47488 -0.417314 -4.4993e-10 -1.8508e-10 8.55146e-10 -2.90554 0.965183 -0.102902 -4.49943e-10 -1.8508e-10 8.55151e-10 -10.2786 0.731801 -0.0259123 -4.49931e-10 -1.8508e-10 8.55143e-10 -2.22167 -0.733487 0.20892 -2.03217e-16 0.0 -3.88251e-19 -2.45943 -19.7226 1.0875 -2.84213 73.3202 2.80616 0.728575 17.4271 -6.39029 2.03217e-16 0.0 3.88251e-19 -7.87811 -21.789 -1.59388 0.258843 37.0343 0.143938 -0.110298 -9.13304 -2.25044
3.54978 82.909 70.4491 -0.0181 -3.743 -3.8887 -2.83731 11.5156 5.19168 -0.791306 -5.10736 0.974273 -1.41985 -0.1574 -2.89071 1.91932 -2.43615 -5.27757 -0.0 0.0 0.0 -0.0 0.0 0.0 3.29498e-14 6.95742e-14 7.61345e-14 80.091 -0.215632 6.26739 -10.4477 -4.41788 18.6436 -0.137284 10.5048 1.49329 -6.06414e-10 1.73103e-09 -1.04326e-09 -1.05613e-09 3.00178e-09 -1.79738e-09 -6.06404e-10 1.73103e-09 -1.04328e-09 7.73091 5.47488 0.417314 -6.06414e-10 1.73103e-09 -1.04327e-09 2.90554 0.965183 0.102902 -6.06409e-10 1.73103e-09 -1.04326e-09 10.2786 0.731801 0.0259123 -6.06421e-10 1.73104e-09 -1.04326e-09 2.22167 -0.733487 -0.20892 3.28998e-14 6.95742e-14 7.60848e-14 -81.0286 23.7762 4.23444 10.9436 -4.73488 -19.5834 0.0404048 -5.72762 0.807683 -8.21102e-10 -6.14814e-10 1.13918e-09 -1.42364e-09 -1.06789e-09 1.96836e-09 -8.21107e-10 -6.14815e-10 1.13918e-09 -7.73091 5.47488 -0.417314 -8.211e-10 -6.14816e-10 1.13917e-09 -2.90554 0.965183 -0.102902 -8.21114e-10 -6.14815e-10 1.13918e-09 -10.2786 0.731801 -0.0259123 -8.21101e-10 -6.14815e-10 1.13917e-09 -2.22167 -0.733487 0.20892 -2.03217e-16 0.0 -3.88251e-19 -2.74089 -21.1079 0.706643 -3.11013 74.4454 3.09735 0.584256 15.7459 -7.05412 2.03217e-16 0.0 3.88251e-19 -8.08784 -20.9729 -1.5213 0.247652 36.9825 0.090161 -0.0734285 -9.58263 -2.12065
